<svg xmlns="http://www.w3.org/2000/svg" width="148" height="148" viewBox="0 0 148 148" version="1.1">
	<path d="M 69.655 1.829 C 68.745 2.835, 68 4.851, 68 6.310 C 68 8.389, 67.406 9.093, 65.250 9.570 C 53.639 12.136, 49.341 13.571, 41 17.666 C 27.400 24.342, 15.342 36.400, 8.666 50 C 2.643 62.268, 0.694 70.080, 0.586 82.376 C 0.502 92.065, 0.553 92.293, 3.296 94.356 C 5.857 96.282, 6.312 96.335, 8.711 94.979 C 10.158 94.162, 11.845 91.933, 12.480 90 C 15.366 81.210, 28.648 81.304, 31.032 90.131 C 31.731 92.719, 32.848 94.108, 34.916 94.965 C 38.785 96.568, 41.492 95.070, 43.003 90.490 C 44.473 86.035, 48.754 83.714, 55.500 83.714 C 62.145 83.714, 66.530 86.045, 67.943 90.328 C 68.554 92.177, 70.166 94.286, 71.526 95.014 C 74.915 96.828, 78.575 94.817, 80.057 90.328 C 81.470 86.045, 85.855 83.714, 92.500 83.714 C 99.246 83.714, 103.527 86.035, 104.997 90.490 C 106.508 95.070, 109.215 96.568, 113.084 94.965 C 115.171 94.101, 116.267 92.721, 116.985 90.055 C 119.308 81.431, 133.603 81.361, 135.492 89.965 C 136.145 92.937, 139.268 96, 141.646 96 C 142.306 96, 144.231 94.835, 145.923 93.411 C 148.885 90.919, 149 90.524, 149 82.852 C 149 77.793, 148.635 75.108, 148 75.500 C 147.442 75.845, 147 75.080, 147 73.769 C 147 68.975, 143.853 59.225, 139.329 50 C 135.400 41.989, 133.247 39.076, 125.585 31.415 C 113.386 19.216, 103.439 14.143, 82.750 9.570 C 80.542 9.082, 80 8.405, 80 6.136 C 80 0.738, 73.203 -2.092, 69.655 1.829 M 0.349 84 C 0.349 88.675, 0.522 90.587, 0.732 88.250 C 0.943 85.912, 0.943 82.087, 0.732 79.750 C 0.522 77.412, 0.349 79.325, 0.349 84 M 68.016 119.917 C 68.032 134.225, 68.217 135.826, 70.287 139.480 C 74.548 147.003, 84.403 150.086, 91.929 146.248 C 96.650 143.841, 100.787 138.309, 101.568 133.360 C 102.106 129.944, 101.852 128.852, 100.110 127.110 C 95.968 122.968, 89.935 125.575, 88.636 132.069 C 88.145 134.526, 87.567 135, 85.060 135 C 83.128 135, 81.704 134.316, 81.035 133.066 C 80.466 132.002, 80 125.102, 80 117.732 L 80 104.333 74 104.333 L 68 104.333 68.016 119.917" stroke="none" fill="black" fill-rule="evenodd"/>
</svg>